<?xml version="1.0" encoding="utf-8"?>
<!-- Generator: Adobe Illustrator 23.0.1, SVG Export Plug-In . SVG Version: 6.00 Build 0)  -->
<svg version="1.1" id="Layer_1" xmlns="http://www.w3.org/2000/svg" xmlns:xlink="http://www.w3.org/1999/xlink" x="0px" y="0px"
	 viewBox="0 0 850.4 850.4" style="enable-background:new 0 0 850.4 850.4;" xml:space="preserve">
<style type="text/css">
	.st0{fill:#231F20;}
	.st1{fill:none;}
</style>
<title>WeRmedia30</title>
<path d="M644.1,323.5c-2.6-14-12.7-27.6-25.9-33.4c-6-2.6-12.5-4-19-4c5.5-11.1,11.1-22.1,16.6-33.2c6.7-13.5,12.6-33.3-4.2-41.4
	c-11.3-5.4-28.9-2.3-39.8,2.7c-5.7,2.6-15,41.6-18,48.8c-7,16.8-14.8,33.3-22.8,49.6c-16.3,33.5-33.7,66.4-48.6,100.5
	c-13.7,31.4-31.6,69.9-32.8,104.7c-1.1,33.5,14.6,1.7,26.1-2.5c-0.3,0.1,1.2,3.6,1.4,3.8c8.2-6.7,14-15.6,18.9-25.1
	s8.8-19.5,13.1-28.7c9.2-19.6,19.2-38.7,29.1-57.9c4.5,0.6,8.7,3.5,11.6,7.2c3.3,4.1,5.3,9.3,7.1,15l5.3,17.7c0.9,3,1.8,5.9,2.8,9
	c1,3.2,2.2,6.4,3.6,9.5c1.5,3.4,3.4,6.7,5.6,9.8c2.4,3.4,5.4,6.3,8.7,8.8c3.7,2.8,7.9,4.7,12.3,5.8c2.4,0.6,4.9,0.9,7.4,0.9
	c2.7-0.1,5.5-0.5,8.1-1.3c5.2-1.6,9.9-4.7,13.5-8.8c4.3-4.8,6.6-11,6.6-17.4c0-11.7-14.6-16.9-23-9.8c-4.9,4.1-3.5,15.8-11.7,12.7
	c-10.2-3.9-14.9-16.3-19.4-25.2c0,0-8.5-16.7-8.5-16.7c-3-5.7-6.6-11.8-12.1-16.5c-1.3-1.2-2.8-2.2-4.3-3.1
	c14.8,2.1,30-2.4,43.7-9.9C621.2,381.4,649.5,352.9,644.1,323.5z M612.5,460.9C612.5,460.9,612.5,460.9,612.5,460.9
	c0.1,0.1,0.1,0.3,0.1,0.3S612.4,461,612.5,460.9L612.5,460.9z M590.3,353.1c-12,19.8-25.9,33.4-31,30.3s0.5-21.7,12.5-41.5
	s25.9-33.4,31-30.3S602.4,333.3,590.3,353.1z"/>
<path d="M689.2,576.7c0.5-0.4,1-0.8,1.7-1c3.3-1.4,7.7,0,7.8,4.1c0.1,3.9-4.8,9-9,7.5C685.6,585.9,686.5,579,689.2,576.7z"/>
<path d="M425.9,558.5c1.6-1.3,3.3-2.4,5.2-3.2c10.6-4.3,24.3,0.1,24.7,12.9c0.4,12.2-15.1,28.3-28.4,23.8
	C414.6,587.7,417.5,565.8,425.9,558.5z"/>
<path d="M466.1,355.1c-0.8-2.1-2-4-3.7-5.5c-6-5.7-16.6-7.3-24-6c-8.4,1.5-15.9,6.2-22.5,11.5c-20.7,16.6-35.2,39.6-41.4,65.3
	c-1.8,7.8-2.9,15.9-1.6,23.8c4.3,28.6,30.2,21.5,44.7,4.4c1.1-1.1,1.7-2.5,1.8-4c-3.3,1.4-17,11.9-18.1,1.2c-0.1-2,0.5-3.9,1.5-5.6
	c5.7-10.9,16.2-17.8,26-24.6c8.5-6,15.6-13,22.9-20.4C461.4,385.4,471.4,369.8,466.1,355.1z M455.5,374.6c0.1,1.1-0.2,2.2-0.7,3.2
	c-1.4,2.6-3.1,5.1-5,7.4l-3.8,4.5c-4.2,4.7-8.7,9.1-13.6,13.1c-1.8,1.5-3.6,2.9-5.6,4.1c-1.5,0.9-3.2,2.3-5.1,2
	c-4.9-0.9-1.5-5.9,0.2-8.1c1-1.3,2-2.7,3-4c1.9-2.4,3.9-4.6,6-6.8c2.2-2.4,4.5-4.7,6.9-6.9c2-1.9,4.2-3.7,6.4-5.4
	c1.7-1.4,3.4-2.6,5.3-3.6c0.4-0.2,0.9-0.5,1.3-0.7C453.6,371.9,455.3,372.7,455.5,374.6z"/>
<path d="M421.5,519.8c3-1.8,5.7-3.5,8.6-5.2c0.4-0.6,0.6-1.3,0.8-2.1c0.1-1.3-0.1-2.7-0.6-3.9c-4.6-1.5-9.4-5.5-13.2-7.3
	c-11.8-5.4-24.6-8.5-37.6-9.2c-7.1-0.3-14.2-0.1-21.3,0.5c-14,0.8-27.9,2.7-41.6,5.7c-20.8,4.7-41.5,10.5-63.4,14.7
	c-23.7,4.5-46.6,7.2-67.5,11.4c-5.7,1.2-11.6,2.3-17.1,2.4c-3.7,0-9.2-1.6-12.6-1c-5.8,1-4.2,3.3-6.1,6.2c-1.3,2-4.5,5.3-5.1,7.5
	c-2.3,8.5,12.2,16.7,22.1,18.2c13.1,2,27-1.6,40.8-5.2c50.6-13.1,112.5-25.8,166.1-33.9C387.2,516.7,411,513.2,421.5,519.8z"/>
<path d="M477,429.7c-0.1,0-0.2,0-0.3,0l0.1,0.4l0.2-0.2C477.1,429.9,477.1,429.7,477,429.7z M500.8,391.3c-0.1,0.1-0.1,0.2-0.2,0.3
	c0.1,0,0.2,0,0.2,0s0.1-0.1,0.1-0.2C501,391.4,500.9,391.3,500.8,391.3L500.8,391.3z M506.2,370.7l-0.7,0.6l0,0.1L506.2,370.7
	L506.2,370.7z M541.4,322.3L541.4,322.3L541.4,322.3L541.4,322.3z M541.4,322.2v0.1l0,0V322.2z M542.1,331.4l0.2,0.1v-0.2
	L542.1,331.4z M551.2,323.7c0,0.1,0.1,0.2,0.2,0.2s0.2,0,0.3,0c0-0.1,0-0.2,0-0.3C551.5,323.6,551.3,323.6,551.2,323.7L551.2,323.7z
	"/>
<path d="M477.1,430l-0.2,0.2l-0.1-0.4c0.1,0,0.2-0.1,0.3,0S477.1,429.9,477.1,430z"/>
<path d="M501,391.4c0,0.1,0,0.2-0.1,0.2s-0.2,0-0.2,0c0-0.1,0.1-0.2,0.2-0.3C500.9,391.3,500.9,391.4,501,391.4z"/>
<polygon points="506.2,370.7 505.5,371.3 505.5,371.2 506.2,370.7 "/>
<polygon points="542.3,331.4 542.3,331.5 542.1,331.4 "/>
<path d="M541.5,322.4L541.5,322.4L541.5,322.4L541.5,322.4z"/>
<path d="M541.5,322.3L541.5,322.3v-0.1V322.3z"/>
<path d="M551.6,323.6c0,0.1,0,0.2,0,0.3c-0.1,0-0.2,0.1-0.3,0s-0.1-0.1-0.2-0.2C551.3,323.6,551.5,323.6,551.6,323.6z"/>
<path d="M619.1,491.9c0,0-0.1,0-0.1-0.1s0,0,0,0S619.1,491.9,619.1,491.9z"/>
<path d="M550,314.6L550,314.6L550,314.6c0,0,0.1-0.1,0.1-0.1C550.1,314.5,550,314.6,550,314.6z M550.8,313.7l-0.6,0.8l1-0.4
	L550.8,313.7z M551.2,323.7c0,0.1,0.1,0.2,0.2,0.2s0.2,0,0.3,0c0-0.1,0-0.2,0-0.3C551.4,323.6,551.3,323.6,551.2,323.7z"/>
<path class="st0" d="M503,587l2.7-15h-0.1l-8.4,15h-2.3l-3-15h0l-2.7,15h-3.1l3.3-18.6h5l2.5,13.4l0,0l7.3-13.3h5.1l-3.2,18.6H503z"
	/>
<path class="st0" d="M531.4,587l3.3-18.6h11.7l-0.5,2.8h-8.6l-0.8,4.8h8.2l-0.5,2.7H536l-1,5.3h9.3l-0.5,2.9H531.4z"/>
<path class="st0" d="M571.1,568.4h6.4c1.1,0,2.1,0.2,3.1,0.4c1,0.3,2,0.7,2.8,1.4c0.8,0.6,1.5,1.5,2,2.4c0.5,1.1,0.8,2.3,0.8,3.6
	c0,1.5-0.3,3-0.8,4.5c-0.6,1.3-1.4,2.4-2.4,3.4c-1,1-2.3,1.7-3.6,2.2c-1.5,0.5-3,0.8-4.5,0.8h-7L571.1,568.4z M571.5,584.2h3.4
	c1.2,0,2.3-0.2,3.4-0.6c1.8-0.7,3.3-2.2,3.9-4.1c0.3-0.9,0.5-1.9,0.5-2.8c0-0.7-0.1-1.4-0.4-2.1c-0.2-0.7-0.6-1.2-1.1-1.7
	c-0.5-0.5-1.2-0.9-1.9-1.2c-0.9-0.3-1.8-0.5-2.7-0.4h-2.9L571.5,584.2z"/>
<path class="st0" d="M608.8,587l3.3-18.6h3.2L612,587H608.8z"/>
<path class="st0" d="M649.8,587l-0.8-4.3h-8l-2.6,4.3h-3.8l12.2-18.6h2.8l3.7,18.6H649.8z M647.3,572.1l-4.7,7.8h6L647.3,572.1z"/>
<path d="M545.6,544.1c-1-0.1-1.9-0.2-2.8-0.3c-7.5-0.8-14.7-3.6-20.7-8.1c-6.5-5.1-10.9-12.4-12.5-20.5c-1.3-6.3,0.1-12.8,3.8-18
	c3.6-4.8,10.6-9,14.1-2.3c2.7,5.1,1.3,9.9,4.9,14.6c3.8,5,9.3,8.1,14.7,10.1c20.3,7.5,42.7,1,63.7-5.6l62.3-19.5
	c13.9-4.4,28-4.2,37.9,9.2c5.1,6.8,7,16.8,5.1,25.8c-2.5,11.6-17.1,31.1-26.9,18.5c-4-5.2-3.7-13.4,0.7-18.5c-0.1-1.9-1-3.7-2.4-4.9
	c-4.8-3.8-12.9-3.7-18.6-3.2c-16.6,1.3-32.8,5.9-50.1,10.8C595.3,538.6,569.8,546.3,545.6,544.1z"/>
<path d="M522.6,307.1c2.3-5,2.6-10.7,0.2-17.6c-8.9-25.8-35.5-33.9-60.2-27.5c-30.5,7.9-52.1,35.5-68.4,60.8
	c-15.5,24.1-29,49.7-43.9,74.1c-2.6,4.2-4.6,7.8-6.9,11.6c-2.8,4.8-5.5,9.6-9.1,13.9c-0.5,0.7-1.2,1.2-2,1.5c-1.9,0.6,0-2.9,0.2-3.5
	c0.7-1.7,1.4-3.4,2.1-5.1c2-4.5,4.1-9,5.9-13.6s3.5-9.5,5.3-14.2c2.8-7.7,7.5-14.5,4.2-22.8c-4-10.3-12.3-15.6-23.4-16
	c-9.2-0.3-16.3,4.8-23,10.5c-3.6,3.1-5.4,7.2-8.3,10.8c-3.5,4.4-6.5,8.3-9.9,12.9c-6.1,8.4-12.3,17.3-18.5,25.8
	c-1.8,2.5-3.7,5.3-5.4,7.8c-2.2,3.2-4.5,7.1-7.5,9.4s-1.1-2.1-0.7-3.1c3.2-7,6.7-12.9,10-19.9c5.2-11.1,10.4-22.2,14.8-33.7
	c6.5-16.8,15.7-32.9,15.9-51.9c0.1-12.5-3.2-26-15.7-31.8c-14.7-6.8-29.1-3-41.3,6.9c-7.6,6.2-5.1,12.8,1.8,18.4
	c5.1,4.2,10.8,2.1,7.1,11.5c-19.3,49.5-45.4,97.5-66.3,146.7c-1.4,3.2-2.8,5.9-2.1,9.1c0.9,4.1,3.3,7.8,6.6,10.4
	c7.3,6,13.1,14.4,23.2,14.9s14.6-3.8,20.8-12c11.3-15,22-33.1,32.7-49c11.7-17.3,22.7-34.5,34.6-51.5c1.1-1.7,2.2-3.4,3.1-5.2
	c-6.4,12.7-10.4,27.2-12.5,41.3c-0.9,6.3-1.2,11.5,1.4,17.5c2.3,4.9,5.6,9.2,9.9,12.6c7.6,6.1,18.4,9.5,27.4,4.4
	c5.6-3.1,9.9-8.3,13.4-13.7c15.6-23.9,26.5-50.5,42-74.5c14.4-22.2,30.5-43.3,48.2-63.1c7-7.8,16.5-17.9,28.1-16.4
	c6.1,0.8,11.8,5.7,12.2,11.9c0.2,3.2-1,6.5-0.8,9.7c0.4,6.2,6.1,10.9,12,12.6c8.8,2.6,18.6,0,26.4-4.9
	C513.8,318.5,519.8,313.5,522.6,307.1z"/>
<rect y="0" class="st1" width="850.4" height="850.4"/>
</svg>
